<?xml version="1.0" encoding="UTF-8" standalone="no"?>
<!-- Generator: Adobe Illustrator 15.1.0, SVG Export Plug-In . SVG Version: 6.00 Build 0)  -->

<svg
   xmlns:dc="http://purl.org/dc/elements/1.1/"
   xmlns:cc="http://creativecommons.org/ns#"
   xmlns:rdf="http://www.w3.org/1999/02/22-rdf-syntax-ns#"
   xmlns:svg="http://www.w3.org/2000/svg"
   xmlns="http://www.w3.org/2000/svg"
   xmlns:sodipodi="http://sodipodi.sourceforge.net/DTD/sodipodi-0.dtd"
   xmlns:inkscape="http://www.inkscape.org/namespaces/inkscape"
   version="1.0"
   id="Layer_1"
   x="0px"
   y="0px"
   width="297.45001"
   height="337.341"
   viewBox="0 0 297.45001 337.341"
   enable-background="new 0 0 792 612"
   xml:space="preserve"
   inkscape:version="0.91 r13725"
   sodipodi:docname="WebBluetoothLogo.svg"
   inkscape:export-filename="/home/gw/workspace/puckwebsite/www/img/web_bluetooth.png"
   inkscape:export-xdpi="45.354698"
   inkscape:export-ydpi="45.354698"><metadata
     id="metadata4361"><rdf:RDF><cc:Work
         rdf:about=""><dc:format>image/svg+xml</dc:format><dc:type
           rdf:resource="http://purl.org/dc/dcmitype/StillImage" /><dc:title></dc:title></cc:Work></rdf:RDF></metadata><defs
     id="defs4359" /><sodipodi:namedview
     pagecolor="#ffffff"
     bordercolor="#666666"
     borderopacity="1"
     objecttolerance="10"
     gridtolerance="10"
     guidetolerance="10"
     inkscape:pageopacity="0"
     inkscape:pageshadow="2"
     inkscape:window-width="2560"
     inkscape:window-height="1389"
     id="namedview4357"
     showgrid="false"
     fit-margin-top="0"
     fit-margin-left="0"
     fit-margin-right="0"
     fit-margin-bottom="0"
     inkscape:zoom="1.3922609"
     inkscape:cx="32.657625"
     inkscape:cy="172.44275"
     inkscape:window-x="0"
     inkscape:window-y="0"
     inkscape:window-maximized="1"
     inkscape:current-layer="Layer_1" /><polygon
     points="722.425,467.241 600.614,501.011 479.142,467.29 452.071,163.67 749.521,163.67 "
     id="polygon4341"
     style="fill:#1572b6"
     transform="translate(-452.071,-163.67)" /><polygon
     points="600.798,188.496 600.798,475.199 699.225,447.911 722.382,188.496 "
     id="polygon4343"
     style="fill:#33a9dc"
     transform="translate(-452.071,-163.67)" /><path
     inkscape:connector-curvature="0"
     style="fill:none"
     d="m 92.75887,95.22129 117.0722,0 0,102.85145 -117.0722,0 z"
     id="path4415" /><g
     id="g4996"
     transform="translate(-452.071,-155.72871)"><g
       id="g4993"><path
         inkscape:connector-curvature="0"
         d="m 672.87193,276.81339 -69.61092,-61.1553 -12.19105,0 0,81.29049 -55.95694,-49.15985 -17.18938,15.10139 68.14799,59.87006 -68.14799,59.87004 17.18938,15.10141 55.95694,-49.15985 0,81.29047 12.19105,0 69.61092,-61.1553 -52.42154,-45.94677 52.42154,-45.94679 z m -57.41986,-20.1352 22.91917,20.1352 -22.91917,20.13519 0,-40.27039 z m 22.91917,112.02876 -22.91917,20.1352 0,-40.27037 22.91917,20.13517 z"
         id="path4417"
         style="fill:#ebebeb;fill-opacity:1" /></g><path
       style="fill:#ffffff"
       id="polygon4988"
       d="m 600.79883,215.6582 0,214.20313 2.46289,0 69.60937,-61.1543 -52.41992,-45.94726 52.41992,-45.94727 -69.60937,-61.1543 -2.46289,0 z m 14.65234,41.01953 22.91992,20.13477 -22.91992,20.13672 0,-40.27149 z m 0,91.89454 22.91992,20.13476 -22.91992,20.13477 0,-40.26953 z"
       inkscape:connector-curvature="0" /></g></svg>